<?xml version="1.0" standalone="no"?>
<!DOCTYPE svg PUBLIC "-//W3C//DTD SVG 20010904//EN"
 "http://www.w3.org/TR/2001/REC-SVG-20010904/DTD/svg10.dtd">
<svg version="1.0" xmlns="http://www.w3.org/2000/svg"
 width="345.000000pt" height="345.000000pt" viewBox="0 0 345.000000 345.000000"
 preserveAspectRatio="xMidYMid meet">
<metadata>
Created by potrace 1.11, written by Peter Selinger 2001-2013
</metadata>
<g transform="translate(0.000000,345.000000) scale(0.100000,-0.100000)"
fill="#000000" stroke="none">
<path d="M638 3434 c-5 -20 -3 -21 31 -13 20 5 41 9 46 9 6 0 3 5 -5 10 -20
13 -33 13 -25 0 3 -5 -3 -10 -14 -10 -10 0 -21 6 -23 12 -3 7 -7 3 -10 -8z"/>
<path d="M2650 3430 c0 -5 5 -10 10 -10 6 0 10 5 10 10 0 6 -4 10 -10 10 -5 0
-10 -4 -10 -10z"/>
<path d="M2698 3413 c7 -3 16 -2 19 1 4 3 -2 6 -13 5 -11 0 -14 -3 -6 -6z"/>
<path d="M646 3385 c-5 -13 -9 -13 -26 -3 -22 14 -52 3 -56 -20 -1 -7 0 -8 3
-2 11 22 20 8 19 -27 -1 -24 -7 -40 -16 -44 -9 -4 2 -10 30 -17 30 -7 37 -10
19 -11 -14 -1 -34 -8 -45 -16 -16 -13 -17 -16 -4 -25 13 -9 13 -10 0 -10 -12
0 -12 -2 -2 -8 7 -5 10 -16 7 -24 -4 -10 1 -17 17 -22 34 -9 60 -7 53 3 -3 5
0 13 6 17 8 5 9 3 4 -6 -6 -10 -4 -12 8 -7 11 4 14 2 10 -8 -3 -8 -9 -13 -13
-10 -5 3 -11 1 -14 -4 -7 -10 13 -9 29 1 6 4 12 -4 13 -18 1 -19 -3 -24 -21
-23 -17 1 -18 2 -4 6 9 2 17 8 17 13 0 4 -9 6 -20 3 -11 -3 -20 -9 -20 -13 0
-14 29 -32 41 -24 8 4 9 3 5 -5 -4 -6 -16 -9 -26 -6 -17 5 -18 2 -13 -32 8
-53 20 -65 58 -57 23 4 35 1 46 -12 8 -10 9 -15 2 -11 -8 5 -11 -1 -9 -20 2
-16 -1 -34 -6 -40 -7 -9 -6 -13 3 -13 10 0 10 -3 1 -12 -7 -7 -8 -17 -1 -30
10 -19 44 -25 54 -8 3 6 12 10 18 10 9 0 9 -2 0 -8 -6 -4 -11 -26 -10 -49 2
-38 4 -42 22 -37 19 6 19 6 1 -8 -15 -12 -16 -15 -3 -15 8 0 20 11 26 24 12
27 35 21 26 -6 -4 -13 1 -17 18 -17 13 0 24 6 24 13 0 10 -3 10 -16 0 -12 -9
-13 -9 -7 0 4 7 2 23 -5 35 -11 20 -9 20 16 -4 15 -16 33 -28 39 -28 6 0 4 -5
-4 -10 -9 -6 -10 -10 -3 -10 19 0 55 52 43 64 -14 14 -13 27 3 24 6 -2 11 3 9
10 -1 8 2 11 9 6 7 -4 10 -2 7 7 -3 8 -10 13 -16 12 -8 -2 -9 5 -2 22 6 15 6
26 -1 30 -5 4 -7 11 -3 16 3 5 10 6 16 3 7 -5 9 -1 5 9 -4 11 -2 14 8 10 10
-3 12 -10 6 -22 -6 -10 -5 -23 0 -34 7 -11 7 -17 0 -17 -5 0 -12 6 -15 13 -3
6 -4 3 -3 -8 2 -11 8 -19 14 -18 12 3 12 -15 -1 -35 -4 -7 -5 -16 -2 -19 3 -4
6 0 6 8 1 10 5 8 15 -5 8 -11 15 -15 15 -9 0 7 -4 14 -8 17 -5 3 -8 39 -7 81
1 45 -1 71 -6 63 -7 -11 -11 -10 -18 2 -9 12 -11 12 -17 -4 -5 -13 -9 -15 -15
-5 -4 7 -3 21 2 30 16 31 10 64 -13 74 -12 6 -24 16 -26 24 -3 8 0 11 7 7 7
-5 9 -1 4 9 -4 12 -8 13 -13 5 -5 -9 -9 -9 -14 -1 -4 6 -4 11 1 11 4 0 2 4 -6
9 -16 10 -33 91 -19 91 5 0 8 6 6 13 -5 14 -68 17 -68 2 0 -5 -4 -3 -9 5 -6 8
-7 18 -5 22 3 4 1 8 -4 8 -5 0 -7 25 -4 56 4 45 2 56 -9 52 -8 -3 -13 -10 -12
-15 1 -5 -4 -10 -11 -10 -7 0 -13 6 -13 13 0 7 5 12 11 11 5 -1 12 6 14 16 4
18 5 18 -70 3 -15 -4 -30 -2 -33 4 -9 15 -42 12 -49 -5z m40 -12 c-10 -11 -37
-12 -30 -2 3 5 12 9 21 9 9 0 13 -3 9 -7z m-46 -143 c0 -5 -7 -7 -15 -4 -8 4
-15 8 -15 10 0 2 7 4 15 4 8 0 15 -4 15 -10z m20 -30 c12 -7 10 -9 -8 -7 -12
0 -22 5 -22 9 0 11 12 10 30 -2z m216 -20 c0 -12 -4 -16 -9 -11 -5 5 -6 14 -3
20 10 15 12 14 12 -9z m54 -102 c0 -5 -9 1 -20 12 -11 11 -20 26 -20 33 0 12
39 -32 40 -45z m-209 -18 c5 0 9 -5 9 -11 0 -8 -5 -8 -15 1 -8 7 -14 20 -14
29 1 13 2 13 6 -1 2 -10 9 -18 14 -18z m-26 -10 c3 -5 -4 -6 -15 -3 -11 3 -22
9 -25 13 -3 5 4 6 15 3 11 -3 22 -9 25 -13z m251 -9 c1 -6 0 -7 -3 -1 -2 5 -9
8 -13 5 -5 -3 -11 -1 -14 4 -4 5 2 8 11 7 9 -2 18 -8 19 -15z m-201 -20 c3 -5
0 -13 -6 -17 -7 -4 -9 -3 -5 4 3 5 0 13 -6 15 -9 4 -10 6 -1 6 6 1 14 -3 18
-8z m43 -96 c2 -10 0 -15 -6 -11 -6 3 -12 0 -15 -6 -2 -7 -4 0 -4 15 -1 30 20
32 25 2z m23 -42 c13 -16 12 -17 -3 -4 -10 7 -18 15 -18 17 0 8 8 3 21 -13z
m24 -63 c3 -6 -1 -7 -9 -4 -18 7 -21 14 -7 14 6 0 13 -4 16 -10z m-5 -36 c0
-8 -4 -14 -8 -14 -4 0 -8 9 -8 19 0 11 4 17 8 15 4 -3 8 -12 8 -20z m116 3 c8
3 14 -1 14 -11 0 -22 -14 -20 -36 7 -10 12 -12 17 -5 10 7 -6 20 -9 27 -6z"/>
<path d="M2583 3380 c-3 -11 -9 -17 -14 -15 -4 3 -6 -5 -4 -17 3 -13 2 -31 -1
-41 -5 -17 -7 -17 -18 -2 -16 22 -50 16 -54 -9 -3 -11 0 -16 7 -12 15 10 14
-17 -1 -32 -7 -7 -8 -12 -4 -12 5 0 3 -6 -3 -14 -9 -11 -9 -16 0 -22 7 -4 9
-3 6 3 -3 5 0 10 8 10 20 0 19 -10 -4 -24 -14 -9 -24 -8 -45 2 -22 12 -26 12
-26 -1 0 -8 10 -15 25 -15 41 -2 45 -4 45 -14 0 -5 -9 -11 -20 -11 -11 -1 -23
-4 -27 -8 -3 -3 -12 -1 -19 5 -9 7 -15 5 -23 -9 -9 -17 -7 -19 14 -16 30 3 30
1 8 -17 -15 -12 -16 -12 -8 1 6 11 5 12 -4 4 -15 -14 -23 -74 -9 -74 7 0 6 -5
-1 -14 -9 -11 -9 -16 0 -22 8 -4 9 -3 5 4 -4 7 -2 12 4 12 7 0 10 -6 8 -12 -3
-8 -26 -14 -56 -16 -37 -2 -52 -7 -52 -18 0 -7 6 -13 13 -12 6 2 13 -9 15 -24
3 -28 -7 -31 -43 -11 -26 15 -13 28 14 13 17 -9 21 -8 21 4 0 10 -6 13 -15 10
-9 -4 -15 -1 -15 7 0 10 -3 10 -12 1 -15 -15 -31 -16 -22 0 4 7 3 8 -4 4 -6
-4 -9 -12 -6 -19 5 -13 -27 -36 -57 -42 -13 -3 -21 3 -25 21 -3 13 -10 24 -16
24 -5 0 -6 -6 -2 -12 5 -9 4 -10 -4 -3 -5 6 -12 19 -14 30 -2 14 -12 21 -36
23 -25 3 -32 8 -33 25 -1 20 -2 21 -6 2 -7 -29 -20 -40 -35 -28 -18 14 -48 12
-48 -4 0 -7 -4 -13 -10 -13 -5 0 -10 4 -10 9 0 5 -28 7 -62 5 -35 -3 -119 -7
-188 -11 -93 -5 -115 -8 -85 -13 38 -7 37 -7 -18 -9 -37 0 -56 3 -52 9 4 6
-15 11 -49 12 -31 0 -62 1 -68 2 -7 1 -13 -6 -13 -14 0 -12 12 -15 55 -13 38
2 50 0 40 -7 -8 -5 -32 -10 -52 -10 -28 0 -40 -5 -49 -22 l-12 -22 -8 22 c-10
26 -24 29 -33 6 -8 -20 2 -36 17 -28 9 5 9 3 0 -6 -10 -11 -15 -11 -29 1 -12
9 -15 10 -10 2 4 -7 3 -13 -3 -13 -5 0 -11 4 -13 9 -2 5 -16 3 -33 -4 -30 -13
-29 -13 18 -10 26 1 50 -1 53 -6 3 -5 -17 -9 -45 -9 -27 0 -53 -5 -56 -10 -4
-6 -19 -9 -33 -8 -21 2 -27 -1 -25 -15 1 -15 -5 -18 -30 -16 -58 4 -72 0 -59
-13 10 -10 15 -10 22 2 5 8 13 11 17 6 4 -5 2 -11 -4 -13 -8 -3 -11 -15 -7
-31 l5 -27 -16 25 -16 25 5 -25 c5 -23 4 -24 -9 -7 -10 15 -18 16 -33 8 -11
-6 -21 -8 -24 -6 -2 2 -9 -4 -15 -14 -10 -16 -8 -18 13 -15 13 1 24 -2 24 -7
0 -6 4 -7 10 -4 6 3 7 -1 4 -9 -5 -14 -8 -14 -21 -1 -24 25 -35 17 -16 -12 10
-15 12 -24 6 -20 -7 5 -13 4 -13 -2 0 -6 -5 -11 -11 -11 -5 0 -7 5 -3 12 5 7
2 9 -8 5 -9 -3 -21 0 -27 6 -8 8 -11 8 -11 -2 0 -7 -6 -11 -14 -8 -8 3 -17 -1
-20 -10 -8 -19 2 -35 16 -27 6 4 8 1 6 -7 -3 -8 -11 -13 -18 -11 -11 3 -11 0
0 -12 16 -21 6 -21 -14 0 -19 18 -56 10 -56 -13 0 -9 7 -21 17 -28 13 -9 13
-14 3 -20 -8 -5 -11 -4 -7 1 3 6 -3 16 -14 22 -19 12 -19 11 -9 -8 11 -21 6
-40 -11 -40 -5 0 -23 14 -39 30 -16 17 -31 30 -34 30 -2 0 -7 -11 -10 -24 -4
-18 -11 -23 -25 -19 -13 3 -24 -2 -33 -16 -7 -12 -23 -21 -37 -21 -19 0 -21
-3 -12 -14 9 -11 7 -15 -8 -19 -11 -3 -22 0 -24 6 -2 6 -9 7 -15 3 -14 -8 -16
-66 -3 -66 5 0 7 -10 3 -22 -5 -21 -6 -21 -13 -2 -4 10 -8 13 -8 7 -1 -7 -7
-13 -14 -13 -21 0 -47 -38 -47 -70 0 -29 -8 -35 -39 -30 -10 1 -12 -7 -7 -33
6 -34 -7 -61 -17 -35 -4 10 -7 11 -18 1 -7 -7 -26 -13 -42 -13 -31 0 -71 -30
-49 -38 6 -2 12 -10 12 -19 0 -19 24 -43 44 -43 9 0 16 -5 16 -11 0 -5 -4 -8
-9 -5 -15 10 -40 -5 -34 -20 7 -20 -16 -45 -41 -43 -37 2 -56 -1 -56 -10 0
-13 57 -34 78 -29 16 5 17 2 8 -17 -6 -13 -15 -21 -19 -18 -5 3 -7 -5 -6 -18
5 -36 -9 -53 -27 -35 -16 16 -19 30 -5 22 20 -13 21 28 1 46 -29 27 -43 13
-37 -38 l5 -44 -39 0 c-22 0 -39 -4 -39 -10 0 -5 5 -10 10 -10 6 0 10 -22 10
-50 0 -27 -4 -50 -10 -50 -5 0 -10 -9 -10 -20 0 -11 -4 -20 -10 -20 -5 0 -10
-4 -10 -10 0 -5 11 -10 25 -10 22 0 25 -4 25 -39 0 -22 -7 -46 -15 -55 -8 -8
-15 -22 -15 -30 0 -9 -4 -16 -10 -16 -5 0 -10 -4 -10 -10 0 -5 14 -10 30 -10
l30 0 0 -80 c0 -76 -1 -80 -22 -80 -18 0 -20 -2 -9 -9 12 -7 15 -33 15 -110 0
-56 4 -101 8 -101 15 0 8 -39 -9 -48 -15 -9 -14 -12 9 -34 15 -13 29 -40 33
-61 4 -20 11 -37 15 -37 4 0 10 -9 13 -20 3 -11 1 -20 -4 -20 -5 0 -9 -9 -9
-20 0 -13 6 -19 18 -18 38 3 51 -2 46 -17 -4 -9 3 -24 16 -35 22 -19 23 -29 4
-92 -3 -12 0 -18 9 -18 22 0 28 -26 21 -97 l-7 -65 44 2 c64 4 81 1 74 -10 -3
-5 -1 -10 4 -10 6 0 11 -12 11 -26 0 -16 4 -23 11 -18 7 4 10 1 7 -7 -5 -14
47 -89 60 -88 4 1 25 1 47 0 l40 -1 -3 -79 -3 -79 71 -4 c39 -1 75 1 81 6 5 6
9 -4 9 -27 0 -23 5 -37 13 -37 8 0 7 -4 -3 -10 -11 -7 -5 -10 23 -10 26 0 37
-4 37 -15 0 -8 4 -15 10 -15 5 0 7 -8 4 -17 -5 -16 -4 -16 6 -3 9 11 13 12 17
3 2 -7 14 -13 24 -13 11 0 18 -4 15 -9 -8 -12 41 -23 66 -15 13 4 24 1 29 -7
6 -10 11 -11 17 -3 4 6 22 13 40 16 28 4 35 1 43 -19 11 -28 29 -30 36 -3 3
11 9 20 14 20 10 0 14 -8 23 -52 5 -22 14 -29 42 -34 24 -4 39 -3 44 6 6 9 13
9 28 1 14 -7 125 -11 339 -11 281 1 316 2 299 15 -11 8 -16 18 -12 22 4 4 11
1 17 -7 7 -13 10 -13 18 -1 6 9 11 10 15 2 4 -6 2 -11 -4 -11 -6 0 -8 -5 -5
-10 3 -6 30 -9 58 -9 29 1 43 4 33 6 -26 7 -41 23 -48 50 -4 15 -2 23 7 23 16
0 32 -19 37 -45 3 -15 7 -11 17 18 10 29 18 37 37 37 13 0 24 4 24 8 0 10 41
9 58 -1 8 -6 12 -4 10 5 -2 9 11 13 47 14 45 1 46 1 8 -3 -64 -6 -52 -23 17
-23 38 0 60 4 60 11 0 7 10 9 25 7 20 -4 26 0 35 25 13 37 13 35 -6 39 -13 2
-9 10 15 36 17 17 27 32 21 32 -13 0 -13 27 -1 35 5 3 16 -2 24 -10 22 -21
107 -21 107 1 0 20 24 44 44 44 9 0 16 8 16 20 0 16 -7 20 -34 20 -34 0 -35 0
-25 30 13 35 29 39 36 10 7 -26 19 -26 26 0 4 16 14 20 51 20 25 0 46 5 46 10
0 6 -8 10 -18 10 -11 0 -21 12 -28 34 -8 27 -8 33 3 29 7 -3 16 -16 19 -30 6
-22 8 -23 22 -10 8 9 17 38 20 66 l5 51 38 0 c38 0 39 1 40 38 1 20 0 47 -1
60 -1 12 3 22 9 22 5 0 13 9 16 20 4 13 15 20 31 20 13 0 24 5 24 10 0 6 -4
10 -10 10 -5 0 -10 7 -10 15 0 13 4 14 20 5 11 -6 19 -18 18 -27 -4 -22 21
-29 29 -7 4 10 0 22 -10 29 -18 13 -24 41 -7 30 6 -3 10 3 10 14 0 12 -4 21
-10 21 -5 0 -10 -6 -10 -12 0 -9 -4 -8 -10 2 -9 13 -11 13 -20 0 -8 -12 -10
-11 -10 8 0 12 6 22 14 22 8 0 17 10 19 23 l4 22 2 -23 c1 -28 26 -24 27 4 0
10 5 30 11 44 17 42 33 96 33 113 0 13 9 17 35 17 34 0 35 1 35 40 0 22 -4 40
-10 40 -5 0 -10 21 -10 46 0 27 4 43 10 39 6 -4 10 13 10 44 0 28 5 51 10 51
6 0 10 -20 10 -45 0 -25 5 -45 10 -45 6 0 10 49 10 126 0 98 3 129 15 140 23
24 18 44 -10 44 -21 0 -25 -5 -25 -30 0 -16 -4 -30 -10 -30 -5 0 -10 11 -10
25 0 14 -4 25 -10 25 -6 0 -10 -45 -10 -115 0 -70 -4 -115 -10 -115 -6 0 -10
46 -10 119 0 110 1 119 20 124 18 5 20 14 20 81 0 67 -2 76 -18 76 -31 0 -56
73 -29 83 10 4 10 6 0 6 -7 1 -13 8 -13 16 0 8 -9 15 -20 15 -11 0 -20 7 -20
15 0 8 4 15 9 15 5 0 14 -7 21 -15 18 -22 32 -18 28 8 -4 28 -16 37 -50 37
-14 0 -28 6 -31 13 -3 9 -8 8 -22 -3 -17 -14 -17 -14 -7 7 7 12 8 23 3 25 -6
2 -1 28 9 58 21 61 25 100 10 100 -5 0 -10 -11 -10 -25 0 -14 -4 -25 -10 -25
-5 0 -10 15 -10 33 0 21 -7 38 -20 47 -11 8 -20 19 -20 25 0 12 -23 38 -59 67
-21 18 -29 63 -12 70 5 2 10 21 12 43 1 22 6 48 11 57 5 11 3 22 -7 32 -10 10
-11 16 -3 18 6 2 8 10 4 17 -5 7 -15 10 -23 7 -8 -3 -11 -1 -8 4 3 6 0 10 -7
10 -11 0 -10 2 0 9 11 7 11 9 -2 14 -18 7 -32 -8 -16 -18 14 -8 13 -25 -2 -25
-19 0 -47 31 -41 46 8 20 23 17 17 -3 -4 -12 -3 -14 3 -6 14 19 3 103 -13 103
-8 0 -14 7 -14 15 0 9 -9 15 -22 15 -26 0 -91 -48 -82 -61 3 -6 12 -3 20 8 13
17 14 17 8 0 -5 -13 -2 -16 10 -11 8 3 14 11 13 17 -1 7 6 11 17 9 12 -2 16 1
10 9 -5 8 -3 10 6 4 10 -6 7 -12 -11 -26 -26 -20 -19 -25 11 -9 16 9 18 7 15
-11 -3 -12 -7 -24 -11 -28 -4 -3 -5 1 -1 10 4 13 -2 16 -39 14 -31 -2 -48 3
-60 16 -9 10 -21 16 -26 13 -5 -3 -2 -11 7 -18 14 -10 14 -13 0 -31 -16 -20
-16 -20 -6 2 8 16 7 22 -4 26 -9 4 -12 1 -8 -9 3 -7 0 -14 -7 -14 -6 0 -8 -4
-5 -10 3 -5 2 -10 -3 -10 -5 0 -12 9 -15 20 -3 11 -1 18 4 14 5 -3 9 -2 9 3 0
4 7 17 15 27 11 15 17 16 28 7 11 -9 17 -8 26 3 10 12 8 17 -8 25 -21 12 -51
5 -51 -11 0 -13 -47 -58 -53 -51 -3 2 -2 13 0 24 5 16 8 18 14 7 7 -10 9 -11
9 0 0 7 5 10 10 7 6 -3 10 0 10 8 0 21 -11 27 -31 16 -17 -8 -19 -6 -19 20 0
17 -6 31 -16 35 -8 3 -12 10 -9 16 3 5 0 7 -8 4 -8 -3 -18 0 -22 6 -5 8 -11 7
-23 -2 -15 -12 -16 -11 -3 5 9 12 10 17 2 17 -8 0 -8 4 1 14 14 15 32 11 23
-5 -3 -5 1 -6 9 -3 8 3 17 12 20 20 3 8 13 14 23 15 12 1 10 3 -7 8 -17 5 -29
2 -37 -8 -7 -9 -13 -12 -13 -7 0 4 -10 1 -23 -7 -19 -12 -24 -13 -24 -2 0 8 4
12 8 10 3 -3 12 2 18 9 8 9 8 16 2 20 -5 4 -12 2 -16 -4 -9 -15 -25 -12 -25 4
0 8 -5 18 -12 22 -7 4 -8 3 -4 -4 4 -7 5 -12 2 -12 -3 0 -10 9 -16 20 -10 18
-8 19 14 10 13 -5 27 -6 31 -2 4 4 5 2 3 -3 -1 -6 0 -10 3 -10 3 0 13 -6 22
-14 21 -17 49 -7 41 14 -3 8 -1 15 4 15 6 0 9 -9 7 -20 -3 -14 2 -20 16 -20
10 0 19 5 19 10 0 6 -6 10 -12 10 -9 0 -8 4 2 11 9 6 11 12 4 15 -6 3 -8 22
-4 54 3 27 3 47 -1 44 -4 -2 -11 1 -15 8 -4 7 -4 10 1 6 4 -4 14 0 22 10 8 9
12 11 8 5 -8 -16 11 -17 20 -2 4 6 0 16 -9 22 -12 9 -13 16 -5 27 9 13 10 12
5 -2 -5 -16 4 -23 27 -19 4 1 3 -7 -2 -18 -6 -10 -7 -22 -3 -26 4 -3 0 -5 -8
-3 -11 2 -14 -5 -11 -27 4 -36 6 -39 21 -30 8 5 7 11 -2 22 -10 13 -8 19 13
37 22 18 26 28 25 76 -1 59 -11 84 -28 74 -7 -4 -8 -2 -4 5 4 6 12 8 18 5 8
-5 9 -1 5 10 -5 11 -3 15 5 10 8 -5 9 -2 5 10 -4 10 -3 15 3 11 6 -4 10 -12 9
-18 -4 -21 13 -47 30 -47 12 0 13 2 3 8 -7 5 -14 18 -17 31 -2 12 0 19 6 16 5
-4 7 -11 4 -16 -8 -12 2 -11 26 1 24 13 25 36 2 49 -14 7 -15 12 -4 24 7 9 10
32 8 56 -5 48 0 56 20 35 15 -15 38 -10 27 7 -3 5 -10 7 -15 4 -5 -4 -9 3 -9
14 0 12 -5 20 -11 19 -6 -2 -12 12 -13 32 -1 27 2 36 14 36 9 0 22 -6 29 -14
10 -10 7 -12 -16 -7 -19 5 -24 4 -14 -3 7 -5 11 -14 8 -18 -8 -15 17 -33 28
-20 23 26 2 74 -33 74 -14 0 -28 4 -30 10 -2 6 -9 9 -17 6 -7 -3 -16 -1 -20 5
-10 16 -45 13 -45 -4 0 -8 -4 -15 -9 -15 -5 0 -11 7 -15 15 -8 21 -27 19 -33
-5z m-48 -120 c-11 -5 -16 -9 -12 -9 5 -1 5 -6 2 -11 -4 -6 -11 -8 -16 -4 -14
8 9 34 30 33 12 0 11 -2 -4 -9z m180 -99 c3 -5 1 -12 -5 -16 -5 -3 -10 1 -10
9 0 18 6 21 15 7z m-25 -41 c0 -5 -2 -10 -4 -10 -3 0 -8 5 -11 10 -3 6 -1 10
4 10 6 0 11 -4 11 -10z m-220 -15 c0 -2 -10 -9 -22 -15 -22 -11 -22 -10 -4 4
21 17 26 19 26 11z m-45 -35 c3 -5 1 -10 -4 -10 -6 0 -11 5 -11 10 0 6 2 10 4
10 3 0 8 -4 11 -10z m207 -102 c-6 -6 -7 0 -4 19 5 21 7 23 10 9 2 -10 0 -22
-6 -28z m-602 -8 c-12 -8 -13 -10 -1 -10 8 0 12 -3 8 -6 -8 -8 -48 6 -43 15 3
3 15 7 28 8 18 2 19 0 8 -7z m44 -5 c-4 -8 -2 -15 4 -15 6 0 12 5 14 12 3 9 6
9 12 0 11 -18 -21 -27 -40 -12 -12 11 -12 15 -2 21 18 12 18 11 12 -6z m60
-15 c-6 -6 -10 -3 -10 10 0 13 4 16 10 10 7 -7 7 -13 0 -20z m-391 13 c-13 -2
-33 -2 -45 0 -13 2 -3 4 22 4 25 0 35 -2 23 -4z m640 -16 c-8 -13 -10 -19 -12
-44 -1 -14 -3 -15 -13 -4 -10 10 -10 15 -1 18 7 2 9 11 6 19 -3 8 0 14 7 14 6
0 8 5 4 12 -4 7 -3 8 5 4 6 -4 8 -13 4 -19z m-578 3 c-3 -5 -10 -10 -16 -10
-5 0 -9 5 -9 10 0 6 7 10 16 10 8 0 12 -4 9 -10z m75 1 c0 -6 -4 -12 -8 -15
-5 -3 -9 1 -9 9 0 8 4 15 9 15 4 0 8 -4 8 -9z m-254 -29 c-10 -2 -22 0 -28 6
-6 6 0 7 19 4 21 -5 23 -7 9 -10z m668 12 c21 -8 20 -20 0 -28 -22 -9 -50 14
-32 25 16 10 13 10 32 3z m-541 -11 c-7 -2 -19 -2 -25 0 -7 3 -2 5 12 5 14 0
19 -2 13 -5z m-327 -45 c4 -7 3 -8 -4 -4 -7 4 -12 2 -12 -3 0 -6 -5 -11 -11
-11 -8 0 -8 5 1 15 15 18 17 18 26 3z m946 -7 c8 12 9 12 6 0 -6 -22 -28 -25
-27 -4 0 12 2 14 6 4 5 -11 7 -11 15 0z m178 -32 c0 8 2 12 5 9 3 -3 2 -13 -1
-22 -5 -14 -9 -15 -15 -4 -5 7 -9 18 -9 23 0 6 5 3 10 -5 8 -12 10 -12 10 -1z
m-20 -23 c0 -2 -8 -10 -17 -17 -16 -13 -17 -12 -4 4 13 16 21 21 21 13z
m-1344 -38 l-6 -23 11 22 c6 12 20 21 30 20 9 -1 15 -5 13 -9 -3 -4 1 -8 8 -8
8 0 6 -5 -5 -11 -10 -6 -21 -8 -24 -5 -4 3 -12 1 -19 -5 -15 -12 -29 5 -20 26
9 24 18 17 12 -7z m1369 -167 c3 -5 0 -13 -6 -17 -7 -4 -9 -3 -5 4 3 6 -2 13
-11 15 -16 4 -16 5 -1 6 9 0 19 -3 23 -8z m304 -395 c-3 -3 -11 5 -18 17 -13
21 -12 21 5 5 10 -10 16 -20 13 -22z m-2382 -158 c-3 -8 -6 -5 -6 6 -1 11 2
17 5 13 3 -3 4 -12 1 -19z m-137 -234 c0 -8 -4 -14 -9 -14 -5 0 -17 -7 -26
-16 -9 -9 -19 -14 -22 -10 -10 9 28 46 40 39 6 -4 8 0 4 11 -4 10 -3 15 3 11
6 -3 10 -13 10 -21z m-8 -56 c-7 -7 -10 -5 -7 8 5 29 6 30 12 16 3 -8 1 -18
-5 -24z m2758 22 c13 -8 12 -10 -3 -10 -17 0 -18 -6 -12 -51 5 -37 4 -50 -4
-45 -6 4 -9 12 -6 17 3 5 2 23 -3 41 -14 51 -3 68 28 48z m-2760 -245 c-8 -10
-10 -31 -6 -62 5 -34 4 -44 -3 -33 -15 21 -14 83 1 98 17 17 23 15 8 -3z
m2850 -140 c0 -19 -4 -35 -10 -35 -5 0 -10 16 -10 35 0 19 5 35 10 35 6 0 10
-16 10 -35z m-2853 -67 c-3 -8 -6 -5 -6 6 -1 11 2 17 5 13 3 -3 4 -12 1 -19z
m2693 -398 c0 -5 -2 -10 -4 -10 -3 0 -8 5 -11 10 -3 6 -1 10 4 10 6 0 11 -4
11 -10z m-29 -43 c-10 -9 -11 -8 -5 6 3 10 9 15 12 12 3 -3 0 -11 -7 -18z
m-36 -97 c-4 -12 -9 -19 -12 -17 -3 3 -2 15 2 27 4 12 9 19 12 17 3 -3 2 -15
-2 -27z m-2462 -141 c8 -29 -3 -56 -14 -37 -11 17 -11 58 0 58 5 0 11 -9 14
-21z m2374 -44 c-9 -7 -15 -14 -12 -16 2 -3 -5 -5 -16 -5 -19 0 -19 1 -3 13
10 7 22 13 27 13 4 0 5 5 1 12 -5 7 -3 8 6 3 10 -6 10 -11 -3 -20z m-102 -165
c3 -5 -1 -10 -10 -10 -9 0 -13 5 -10 10 3 6 8 10 10 10 2 0 7 -4 10 -10z
m-1855 -174 c0 -3 -4 -8 -10 -11 -5 -3 -10 -1 -10 4 0 6 5 11 10 11 6 0 10 -2
10 -4z m1407 -122 c-3 -3 -12 -4 -19 -1 -8 3 -5 6 6 6 11 1 17 -2 13 -5z
m-817 -104 c-8 -5 -19 -10 -25 -10 -5 0 -3 5 5 10 8 5 20 10 25 10 6 0 3 -5
-5 -10z m-75 -18 c-3 -3 -11 0 -18 7 -9 10 -8 11 6 5 10 -3 15 -9 12 -12z
m557 6 c15 15 28 15 28 2 0 -5 -3 -9 -7 -9 -5 1 -12 0 -18 -1 -22 -6 -105 -5
-105 2 0 11 44 14 68 4 16 -6 26 -6 34 2z m-382 -6 c0 -4 -16 -8 -35 -9 -46
-2 -46 11 0 14 19 2 35 0 35 -5z"/>
<path d="M2275 2910 c-3 -5 -1 -10 4 -10 6 0 11 5 11 10 0 6 -2 10 -4 10 -3 0
-8 -4 -11 -10z"/>
<path d="M832 3281 c-14 -10 24 -40 39 -30 11 7 10 9 -5 9 -14 0 -16 3 -7 13
8 10 7 14 -4 14 -8 0 -18 -3 -23 -6z"/>
<path d="M2767 3199 c4 -13 8 -18 11 -10 2 7 -1 18 -6 23 -8 8 -9 4 -5 -13z"/>
<path d="M925 3200 c3 -5 12 -7 20 -3 21 7 19 13 -6 13 -11 0 -18 -4 -14 -10z"/>
<path d="M935 3160 c-3 -5 1 -10 10 -10 9 0 13 5 10 10 -3 6 -8 10 -10 10 -2
0 -7 -4 -10 -10z"/>
<path d="M2785 3120 c3 -5 8 -10 11 -10 2 0 4 5 4 10 0 6 -5 10 -11 10 -5 0
-7 -4 -4 -10z"/>
<path d="M1850 3035 c-14 -16 -10 -18 14 -9 9 3 16 10 16 15 0 14 -16 11 -30
-6z"/>
<path d="M1990 3042 c0 -6 -15 -16 -32 -21 l-33 -9 31 -1 c29 -1 54 22 39 37
-3 3 -5 0 -5 -6z"/>
<path d="M2133 3025 c15 -13 27 -31 27 -39 0 -14 18 -32 25 -24 8 8 -28 68
-41 68 -8 0 -14 5 -14 10 0 6 -6 10 -12 10 -7 0 -1 -12 15 -25z"/>
<path d="M2690 3010 c0 -5 7 -10 15 -10 8 0 15 5 15 10 0 6 -7 10 -15 10 -8 0
-15 -4 -15 -10z"/>
<path d="M729 2978 c-6 -13 -6 -59 -1 -62 4 -2 7 11 7 30 0 30 -2 40 -6 32z"/>
<path d="M2698 2973 c7 -3 16 -2 19 1 4 3 -2 6 -13 5 -11 0 -14 -3 -6 -6z"/>
<path d="M2224 2955 c8 -8 18 -15 22 -15 3 0 1 7 -6 15 -7 8 -17 15 -22 15 -5
0 -3 -7 6 -15z"/>
<path d="M2190 2935 c0 -6 10 -11 23 -12 12 0 16 1 9 4 -6 3 -10 8 -8 12 3 4
-1 8 -9 8 -8 0 -15 -5 -15 -12z"/>
<path d="M2700 2900 c0 -5 5 -10 10 -10 6 0 10 5 10 10 0 6 -4 10 -10 10 -5 0
-10 -4 -10 -10z"/>
<path d="M1085 2790 c-3 -5 -1 -10 4 -10 6 0 11 5 11 10 0 6 -2 10 -4 10 -3 0
-8 -4 -11 -10z"/>
<path d="M1015 2760 c-3 -5 1 -10 9 -10 9 0 16 5 16 10 0 6 -4 10 -9 10 -6 0
-13 -4 -16 -10z"/>
<path d="M2608 2743 c6 -2 18 -2 25 0 6 3 1 5 -13 5 -14 0 -19 -2 -12 -5z"/>
<path d="M985 2720 c3 -5 8 -10 11 -10 2 0 4 5 4 10 0 6 -5 10 -11 10 -5 0 -7
-4 -4 -10z"/>
<path d="M1019 2708 c4 -12 16 -23 27 -24 18 -3 18 -2 2 10 -10 7 -18 18 -18
25 0 6 -4 11 -10 11 -5 0 -6 -9 -1 -22z"/>
<path d="M960 2700 c0 -14 15 -19 29 -11 9 6 7 10 -8 14 -12 3 -21 1 -21 -3z"/>
<path d="M887 2636 c-4 -10 -5 -21 -2 -24 9 -9 17 6 13 25 -3 17 -4 17 -11 -1z"/>
<path d="M920 2634 c0 -8 5 -12 10 -9 6 3 10 10 10 16 0 5 -4 9 -10 9 -5 0
-10 -7 -10 -16z"/>
<path d="M477 2333 c-11 -10 -8 -41 4 -49 16 -10 29 9 23 34 -6 22 -15 27 -27
15z"/>
<path d="M520 2309 c0 -24 23 -21 28 4 2 10 -3 17 -12 17 -10 0 -16 -9 -16
-21z"/>
<path d="M2930 2314 c0 -8 5 -12 10 -9 6 3 10 10 10 16 0 5 -4 9 -10 9 -5 0
-10 -7 -10 -16z"/>
<path d="M2910 2240 c0 -5 7 -7 15 -4 8 4 15 8 15 10 0 2 -7 4 -15 4 -8 0 -15
-4 -15 -10z"/>
<path d="M2945 2200 c-3 -5 -1 -10 4 -10 6 0 11 5 11 10 0 6 -2 10 -4 10 -3 0
-8 -4 -11 -10z"/>
<path d="M3020 1940 c0 -11 5 -20 10 -20 6 0 10 9 10 20 0 11 -4 20 -10 20 -5
0 -10 -9 -10 -20z"/>
<path d="M3095 1900 c3 -5 10 -10 16 -10 5 0 9 5 9 10 0 6 -7 10 -16 10 -8 0
-12 -4 -9 -10z"/>
<path d="M160 1200 c0 -5 5 -10 10 -10 6 0 10 5 10 10 0 6 -4 10 -10 10 -5 0
-10 -4 -10 -10z"/>
<path d="M3180 1175 c0 -14 5 -25 10 -25 6 0 10 11 10 25 0 14 -4 25 -10 25
-5 0 -10 -11 -10 -25z"/>
<path d="M260 1024 c0 -14 4 -23 10 -19 6 3 10 15 10 26 0 10 -4 19 -10 19 -5
0 -10 -12 -10 -26z"/>
<path d="M320 855 c0 -14 5 -25 10 -25 6 0 10 11 10 25 0 14 -4 25 -10 25 -5
0 -10 -11 -10 -25z"/>
<path d="M2960 610 c0 -22 5 -40 10 -40 6 0 10 18 10 40 0 22 -4 40 -10 40 -5
0 -10 -18 -10 -40z"/>
<path d="M2856 515 c-6 -18 2 -45 15 -45 5 0 9 14 9 30 0 32 -14 40 -24 15z"/>
<path d="M2700 270 c0 -11 5 -20 10 -20 6 0 10 9 10 20 0 11 -4 20 -10 20 -5
0 -10 -9 -10 -20z"/>
<path d="M800 100 c0 -5 5 -10 10 -10 6 0 10 5 10 10 0 6 -4 10 -10 10 -5 0
-10 -4 -10 -10z"/>
<path d="M1238 3 c12 -2 30 -2 40 0 9 3 -1 5 -23 4 -22 0 -30 -2 -17 -4z"/>
</g>
</svg>
